<?xml version="1.0" encoding="UTF-8" standalone="no"?>
<!-- Created with Inkscape (http://www.inkscape.org/) -->

<svg
   width="188.86545mm"
   height="261.54468mm"
   viewBox="0 0 188.86545 261.54468"
   version="1.1"
   id="svg1"
   inkscape:version="1.3 (0e150ed6c4, 2023-07-21)"
   sodipodi:docname="tesi_interfaccia5.svg"
   inkscape:export-filename="tesi_interfaccia5.png"
   inkscape:export-xdpi="96"
   inkscape:export-ydpi="96"
   xmlns:inkscape="http://www.inkscape.org/namespaces/inkscape"
   xmlns:sodipodi="http://sodipodi.sourceforge.net/DTD/sodipodi-0.dtd"
   xmlns:xlink="http://www.w3.org/1999/xlink"
   xmlns="http://www.w3.org/2000/svg"
   xmlns:svg="http://www.w3.org/2000/svg">
  <sodipodi:namedview
     id="namedview1"
     pagecolor="#ffffff"
     bordercolor="#000000"
     borderopacity="0.25"
     inkscape:showpageshadow="2"
     inkscape:pageopacity="0.0"
     inkscape:pagecheckerboard="0"
     inkscape:deskcolor="#d1d1d1"
     inkscape:document-units="mm"
     inkscape:zoom="0.47482639"
     inkscape:cx="395.93418"
     inkscape:cy="529.66727"
     inkscape:window-width="1920"
     inkscape:window-height="991"
     inkscape:window-x="-9"
     inkscape:window-y="-9"
     inkscape:window-maximized="1"
     inkscape:current-layer="layer1"
     showgrid="false">
    <inkscape:grid
       id="grid1"
       units="mm"
       originx="-62.048497"
       originy="-62.369152"
       spacingx="0.99999998"
       spacingy="1"
       empcolor="#0099e5"
       empopacity="0.30196078"
       color="#0099e5"
       opacity="0.14901961"
       empspacing="5"
       dotted="false"
       gridanglex="30"
       gridanglez="30"
       visible="false" />
  </sodipodi:namedview>
  <defs
     id="defs1">
    <linearGradient
       id="linearGradient3"
       inkscape:collect="always">
      <stop
         style="stop-color:#f9dd17;stop-opacity:1;"
         offset="0"
         id="stop3" />
      <stop
         style="stop-color:#bd6eee;stop-opacity:1;"
         offset="1"
         id="stop8" />
    </linearGradient>
    <filter
       inkscape:collect="always"
       style="color-interpolation-filters:sRGB"
       id="filter13"
       x="-0.088946817"
       y="-0.42971709"
       width="1.1778936"
       height="1.8594342">
      <feGaussianBlur
         inkscape:collect="always"
         stdDeviation="5.1586918"
         id="feGaussianBlur13" />
    </filter>
    <linearGradient
       inkscape:collect="always"
       xlink:href="#linearGradient19"
       id="linearGradient26"
       gradientUnits="userSpaceOnUse"
       gradientTransform="matrix(0.86444364,0,0,0.85615908,167.71654,-324.53923)"
       x1="-165.10001"
       y1="91.016663"
       x2="-76.200005"
       y2="91.016663" />
    <linearGradient
       id="linearGradient19"
       inkscape:collect="always">
      <stop
         style="stop-color:#ecaf0a;stop-opacity:1;"
         offset="0"
         id="stop18" />
      <stop
         style="stop-color:#bb23f5;stop-opacity:1;"
         offset="1"
         id="stop19" />
    </linearGradient>
    <linearGradient
       inkscape:collect="always"
       xlink:href="#linearGradient19"
       id="linearGradient18"
       gradientUnits="userSpaceOnUse"
       gradientTransform="matrix(0.89215798,0,0,0.88949511,157.38069,-329.81173)"
       x1="-165.10001"
       y1="91.016663"
       x2="-76.200005"
       y2="91.016663" />
    <linearGradient
       inkscape:collect="always"
       xlink:href="#linearGradient17"
       id="linearGradient16"
       gradientUnits="userSpaceOnUse"
       gradientTransform="matrix(0.88344407,0,0,0.89331544,286.31248,-260.06122)"
       x1="-165.10001"
       y1="91.016663"
       x2="-76.200005"
       y2="91.016663" />
    <linearGradient
       id="linearGradient17"
       inkscape:collect="always">
      <stop
         style="stop-color:#fce20c;stop-opacity:1;"
         offset="0"
         id="stop16" />
      <stop
         style="stop-color:#bb6af5;stop-opacity:1;"
         offset="1"
         id="stop17" />
    </linearGradient>
    <linearGradient
       inkscape:collect="always"
       xlink:href="#linearGradient3"
       id="linearGradient25"
       gradientUnits="userSpaceOnUse"
       x1="34.875988"
       y1="89.884705"
       x2="174.92792"
       y2="89.884705" />
    <linearGradient
       inkscape:collect="always"
       xlink:href="#linearGradient3"
       id="linearGradient27"
       gradientUnits="userSpaceOnUse"
       x1="34.875988"
       y1="89.884705"
       x2="174.92792"
       y2="89.884705" />
    <linearGradient
       inkscape:collect="always"
       xlink:href="#linearGradient3"
       id="linearGradient28"
       gradientUnits="userSpaceOnUse"
       x1="34.875988"
       y1="89.884705"
       x2="174.92792"
       y2="89.884705" />
    <linearGradient
       inkscape:collect="always"
       xlink:href="#linearGradient3"
       id="linearGradient29"
       gradientUnits="userSpaceOnUse"
       x1="34.875988"
       y1="89.884705"
       x2="174.92792"
       y2="89.884705" />
    <linearGradient
       inkscape:collect="always"
       xlink:href="#linearGradient19"
       id="linearGradient32"
       gradientUnits="userSpaceOnUse"
       gradientTransform="matrix(0.86444364,0,0,0.85615908,167.71654,-324.53923)"
       x1="-165.10001"
       y1="91.016663"
       x2="-76.200005"
       y2="91.016663" />
    <linearGradient
       inkscape:collect="always"
       xlink:href="#linearGradient19"
       id="linearGradient33"
       gradientUnits="userSpaceOnUse"
       gradientTransform="matrix(0.89215798,0,0,0.88949511,157.38069,-329.81173)"
       x1="-165.10001"
       y1="91.016663"
       x2="-76.200005"
       y2="91.016663" />
    <linearGradient
       inkscape:collect="always"
       xlink:href="#linearGradient17"
       id="linearGradient34"
       gradientUnits="userSpaceOnUse"
       gradientTransform="matrix(0.88344407,0,0,0.89331544,286.31248,-260.06122)"
       x1="-165.10001"
       y1="91.016663"
       x2="-76.200005"
       y2="91.016663" />
    <linearGradient
       inkscape:collect="always"
       xlink:href="#linearGradient19"
       id="linearGradient45"
       gradientUnits="userSpaceOnUse"
       gradientTransform="matrix(0.86444364,0,0,0.85615908,167.71654,-324.53923)"
       x1="-165.10001"
       y1="91.016663"
       x2="-76.200005"
       y2="91.016663" />
    <linearGradient
       inkscape:collect="always"
       xlink:href="#linearGradient19"
       id="linearGradient46"
       gradientUnits="userSpaceOnUse"
       gradientTransform="matrix(0.89215798,0,0,0.88949511,157.38069,-329.81173)"
       x1="-165.10001"
       y1="91.016663"
       x2="-76.200005"
       y2="91.016663" />
    <linearGradient
       inkscape:collect="always"
       xlink:href="#linearGradient17"
       id="linearGradient47"
       gradientUnits="userSpaceOnUse"
       gradientTransform="matrix(0.88344407,0,0,0.89331544,286.31248,-260.06122)"
       x1="-165.10001"
       y1="91.016663"
       x2="-76.200005"
       y2="91.016663" />
    <linearGradient
       inkscape:collect="always"
       xlink:href="#linearGradient19"
       id="linearGradient50"
       gradientUnits="userSpaceOnUse"
       gradientTransform="matrix(0.86444364,0,0,0.85615908,167.71654,-324.53923)"
       x1="-165.10001"
       y1="91.016663"
       x2="-76.200005"
       y2="91.016663" />
    <linearGradient
       inkscape:collect="always"
       xlink:href="#linearGradient19"
       id="linearGradient51"
       gradientUnits="userSpaceOnUse"
       gradientTransform="matrix(0.89215798,0,0,0.88949511,157.38069,-329.81173)"
       x1="-165.10001"
       y1="91.016663"
       x2="-76.200005"
       y2="91.016663" />
    <linearGradient
       inkscape:collect="always"
       xlink:href="#linearGradient17"
       id="linearGradient52"
       gradientUnits="userSpaceOnUse"
       gradientTransform="matrix(0.88344407,0,0,0.89331544,286.31248,-260.06122)"
       x1="-165.10001"
       y1="91.016663"
       x2="-76.200005"
       y2="91.016663" />
    <linearGradient
       inkscape:collect="always"
       xlink:href="#linearGradient19"
       id="linearGradient55"
       gradientUnits="userSpaceOnUse"
       gradientTransform="matrix(0.86444364,0,0,0.85615908,167.71654,-324.53923)"
       x1="-165.10001"
       y1="91.016663"
       x2="-76.200005"
       y2="91.016663" />
    <linearGradient
       inkscape:collect="always"
       xlink:href="#linearGradient19"
       id="linearGradient56"
       gradientUnits="userSpaceOnUse"
       gradientTransform="matrix(0.89215798,0,0,0.88949511,157.38069,-329.81173)"
       x1="-165.10001"
       y1="91.016663"
       x2="-76.200005"
       y2="91.016663" />
    <linearGradient
       inkscape:collect="always"
       xlink:href="#linearGradient17"
       id="linearGradient57"
       gradientUnits="userSpaceOnUse"
       gradientTransform="matrix(0.88344407,0,0,0.89331544,286.31248,-260.06122)"
       x1="-165.10001"
       y1="91.016663"
       x2="-76.200005"
       y2="91.016663" />
    <linearGradient
       inkscape:collect="always"
       xlink:href="#linearGradient3"
       id="linearGradient59"
       gradientUnits="userSpaceOnUse"
       x1="34.875988"
       y1="89.884705"
       x2="174.92792"
       y2="89.884705" />
    <linearGradient
       inkscape:collect="always"
       xlink:href="#linearGradient3"
       id="linearGradient60"
       gradientUnits="userSpaceOnUse"
       x1="34.875988"
       y1="89.884705"
       x2="174.92792"
       y2="89.884705" />
    <linearGradient
       inkscape:collect="always"
       xlink:href="#linearGradient3"
       id="linearGradient61"
       gradientUnits="userSpaceOnUse"
       x1="34.875988"
       y1="89.884705"
       x2="174.92792"
       y2="89.884705" />
    <linearGradient
       inkscape:collect="always"
       xlink:href="#linearGradient3"
       id="linearGradient62"
       gradientUnits="userSpaceOnUse"
       x1="34.875988"
       y1="89.884705"
       x2="174.92792"
       y2="89.884705" />
    <linearGradient
       inkscape:collect="always"
       xlink:href="#linearGradient3"
       id="linearGradient64"
       gradientUnits="userSpaceOnUse"
       x1="34.875988"
       y1="89.884705"
       x2="174.92792"
       y2="89.884705" />
    <linearGradient
       inkscape:collect="always"
       xlink:href="#linearGradient3"
       id="linearGradient65"
       gradientUnits="userSpaceOnUse"
       x1="34.875988"
       y1="89.884705"
       x2="174.92792"
       y2="89.884705" />
    <linearGradient
       inkscape:collect="always"
       xlink:href="#linearGradient3"
       id="linearGradient66"
       gradientUnits="userSpaceOnUse"
       x1="34.875988"
       y1="89.884705"
       x2="174.92792"
       y2="89.884705" />
    <linearGradient
       inkscape:collect="always"
       xlink:href="#linearGradient3"
       id="linearGradient67"
       gradientUnits="userSpaceOnUse"
       x1="34.875988"
       y1="89.884705"
       x2="174.92792"
       y2="89.884705" />
    <linearGradient
       inkscape:collect="always"
       xlink:href="#linearGradient3"
       id="linearGradient69"
       gradientUnits="userSpaceOnUse"
       x1="34.875988"
       y1="89.884705"
       x2="174.92792"
       y2="89.884705" />
    <linearGradient
       inkscape:collect="always"
       xlink:href="#linearGradient3"
       id="linearGradient70"
       gradientUnits="userSpaceOnUse"
       x1="34.875988"
       y1="89.884705"
       x2="174.92792"
       y2="89.884705" />
    <linearGradient
       inkscape:collect="always"
       xlink:href="#linearGradient3"
       id="linearGradient71"
       gradientUnits="userSpaceOnUse"
       x1="34.875988"
       y1="89.884705"
       x2="174.92792"
       y2="89.884705" />
    <linearGradient
       inkscape:collect="always"
       xlink:href="#linearGradient3"
       id="linearGradient72"
       gradientUnits="userSpaceOnUse"
       x1="34.875988"
       y1="89.884705"
       x2="174.92792"
       y2="89.884705" />
    <linearGradient
       inkscape:collect="always"
       xlink:href="#linearGradient19"
       id="linearGradient89"
       gradientUnits="userSpaceOnUse"
       gradientTransform="matrix(0.86444364,0,0,0.85615908,167.71654,-324.53923)"
       x1="-165.10001"
       y1="91.016663"
       x2="-76.200005"
       y2="91.016663" />
    <linearGradient
       inkscape:collect="always"
       xlink:href="#linearGradient19"
       id="linearGradient90"
       gradientUnits="userSpaceOnUse"
       gradientTransform="matrix(0.89215798,0,0,0.88949511,157.38069,-329.81173)"
       x1="-165.10001"
       y1="91.016663"
       x2="-76.200005"
       y2="91.016663" />
    <linearGradient
       inkscape:collect="always"
       xlink:href="#linearGradient17"
       id="linearGradient91"
       gradientUnits="userSpaceOnUse"
       gradientTransform="matrix(0.88344407,0,0,0.89331544,286.31248,-260.06122)"
       x1="-165.10001"
       y1="91.016663"
       x2="-76.200005"
       y2="91.016663" />
  </defs>
  <g
     inkscape:label="Livello 1"
     inkscape:groupmode="layer"
     id="layer1"
     transform="translate(-16.416998,-16.501838)">
    <g
       id="g29"
       transform="matrix(0.22324471,0,0,0.2162994,171.30688,13.446411)">
      <path
         style="fill:url(#linearGradient26);fill-opacity:1;stroke-width:0.147971"
         id="path25"
         sodipodi:type="arc"
         sodipodi:cx="63.421406"
         sodipodi:cy="-246.61453"
         sodipodi:rx="38.424511"
         sodipodi:ry="36.697121"
         sodipodi:start="0"
         sodipodi:end="6.282762"
         sodipodi:arc-type="slice"
         d="m 101.84592,-246.61453 a 38.424511,36.697121 0 0 1 -38.420448,36.69712 38.424511,36.697121 0 0 1 -38.428576,-36.68936 38.424511,36.697121 0 0 1 38.412311,-36.70488 38.424511,36.697121 0 0 1 38.436703,36.68158 l -38.424504,0.0155 z"
         transform="matrix(-0.78775804,0.61598479,-0.66229429,-0.7492438,0,0)" />
      <g
         id="g28"
         transform="translate(0.42877718,3.0014404)">
        <path
           style="fill:url(#linearGradient18);fill-opacity:1;stroke-width:0.153223"
           id="path17"
           sodipodi:type="arc"
           sodipodi:cx="49.741825"
           sodipodi:cy="-248.85289"
           sodipodi:rx="39.656414"
           sodipodi:ry="38.125984"
           sodipodi:start="0"
           sodipodi:end="6.282762"
           sodipodi:arc-type="slice"
           d="m 89.398239,-248.85289 a 39.656414,38.125984 0 0 1 -39.652217,38.12598 39.656414,38.125984 0 0 1 -39.66061,-38.11791 39.656414,38.125984 0 0 1 39.643823,-38.13405 39.656414,38.125984 0 0 1 39.669001,38.10984 l -39.656411,0.0161 z"
           transform="matrix(-0.8194084,0.57321015,-0.60514515,-0.79611516,0,0)" />
        <path
           style="fill:url(#linearGradient16);fill-opacity:1;stroke-width:0.152799"
           id="path15"
           sodipodi:type="arc"
           sodipodi:cx="179.72495"
           sodipodi:cy="-178.75462"
           sodipodi:rx="39.269089"
           sodipodi:ry="38.289734"
           sodipodi:start="0"
           sodipodi:end="6.282762"
           sodipodi:arc-type="slice"
           d="m 218.99403,-178.75462 a 39.269089,38.289734 0 0 1 -39.26493,38.28973 39.269089,38.289734 0 0 1 -39.27324,-38.28163 39.269089,38.289734 0 0 1 39.25662,-38.29784 39.269089,38.289734 0 0 1 39.28155,38.27353 l -39.26908,0.0162 z"
           transform="matrix(-0.33096284,0.94364379,-0.95156073,-0.30746084,0,0)" />
      </g>
    </g>
    <g
       id="g25"
       transform="matrix(0.0538468,0.04407286,-0.05352256,0.08746971,173.09455,253.95819)"
       style="fill:url(#linearGradient29)">
      <rect
         style="opacity:0.645338;fill:url(#linearGradient25);fill-opacity:0.388031;stroke-width:0.172"
         id="rect23"
         width="139.19397"
         height="28.811655"
         x="34.875988"
         y="72.038536"
         ry="8.9802561" />
      <rect
         style="opacity:0.645338;mix-blend-mode:normal;fill:url(#linearGradient27);fill-opacity:0.388031;stroke-width:0.172;filter:url(#filter13)"
         id="rect24"
         width="139.19397"
         height="28.811655"
         x="34.875988"
         y="72.038536"
         ry="8.9802561"
         transform="matrix(0.84339412,0,0,0.43526761,16.361081,59.202828)" />
      <rect
         style="fill:url(#linearGradient28);stroke-width:0.172"
         id="rect25"
         width="139.19397"
         height="28.811655"
         x="35.733936"
         y="71.280777"
         ry="8.9802561" />
    </g>
    <g
       id="g32"
       transform="matrix(0.13466735,0,0,0.13270467,141.88142,242.5413)">
      <path
         style="fill:url(#linearGradient32);fill-opacity:1;stroke-width:0.147971"
         id="path29"
         sodipodi:type="arc"
         sodipodi:cx="63.421406"
         sodipodi:cy="-246.61453"
         sodipodi:rx="38.424511"
         sodipodi:ry="36.697121"
         sodipodi:start="0"
         sodipodi:end="6.282762"
         sodipodi:arc-type="slice"
         d="m 101.84592,-246.61453 a 38.424511,36.697121 0 0 1 -38.420448,36.69712 38.424511,36.697121 0 0 1 -38.428576,-36.68936 38.424511,36.697121 0 0 1 38.412311,-36.70488 38.424511,36.697121 0 0 1 38.436703,36.68158 l -38.424504,0.0155 z"
         transform="matrix(-0.78775804,0.61598479,-0.66229429,-0.7492438,0,0)" />
      <g
         id="g31"
         transform="translate(0.42877718,3.0014404)">
        <path
           style="fill:url(#linearGradient33);fill-opacity:1;stroke-width:0.153223"
           id="path30"
           sodipodi:type="arc"
           sodipodi:cx="49.741825"
           sodipodi:cy="-248.85289"
           sodipodi:rx="39.656414"
           sodipodi:ry="38.125984"
           sodipodi:start="0"
           sodipodi:end="6.282762"
           sodipodi:arc-type="slice"
           d="m 89.398239,-248.85289 a 39.656414,38.125984 0 0 1 -39.652217,38.12598 39.656414,38.125984 0 0 1 -39.66061,-38.11791 39.656414,38.125984 0 0 1 39.643823,-38.13405 39.656414,38.125984 0 0 1 39.669001,38.10984 l -39.656411,0.0161 z"
           transform="matrix(-0.8194084,0.57321015,-0.60514515,-0.79611516,0,0)" />
        <path
           style="fill:url(#linearGradient34);fill-opacity:1;stroke-width:0.152799"
           id="path31"
           sodipodi:type="arc"
           sodipodi:cx="179.72495"
           sodipodi:cy="-178.75462"
           sodipodi:rx="39.269089"
           sodipodi:ry="38.289734"
           sodipodi:start="0"
           sodipodi:end="6.282762"
           sodipodi:arc-type="slice"
           d="m 218.99403,-178.75462 a 39.269089,38.289734 0 0 1 -39.26493,38.28973 39.269089,38.289734 0 0 1 -39.27324,-38.28163 39.269089,38.289734 0 0 1 39.25662,-38.29784 39.269089,38.289734 0 0 1 39.28155,38.27353 l -39.26908,0.0162 z"
           transform="matrix(-0.33096284,0.94364379,-0.95156073,-0.30746084,0,0)" />
      </g>
    </g>
    <g
       id="g45"
       transform="matrix(0.07870552,0,0,0.0685234,10.875375,79.382958)">
      <path
         style="fill:url(#linearGradient45);fill-opacity:1;stroke-width:0.147971"
         id="path42"
         sodipodi:type="arc"
         sodipodi:cx="63.421406"
         sodipodi:cy="-246.61453"
         sodipodi:rx="38.424511"
         sodipodi:ry="36.697121"
         sodipodi:start="0"
         sodipodi:end="6.282762"
         sodipodi:arc-type="slice"
         d="m 101.84592,-246.61453 a 38.424511,36.697121 0 0 1 -38.420448,36.69712 38.424511,36.697121 0 0 1 -38.428576,-36.68936 38.424511,36.697121 0 0 1 38.412311,-36.70488 38.424511,36.697121 0 0 1 38.436703,36.68158 l -38.424504,0.0155 z"
         transform="matrix(-0.78775804,0.61598479,-0.66229429,-0.7492438,0,0)" />
      <g
         id="g44"
         transform="translate(0.42877718,3.0014404)">
        <path
           style="fill:url(#linearGradient46);fill-opacity:1;stroke-width:0.153223"
           id="path43"
           sodipodi:type="arc"
           sodipodi:cx="49.741825"
           sodipodi:cy="-248.85289"
           sodipodi:rx="39.656414"
           sodipodi:ry="38.125984"
           sodipodi:start="0"
           sodipodi:end="6.282762"
           sodipodi:arc-type="slice"
           d="m 89.398239,-248.85289 a 39.656414,38.125984 0 0 1 -39.652217,38.12598 39.656414,38.125984 0 0 1 -39.66061,-38.11791 39.656414,38.125984 0 0 1 39.643823,-38.13405 39.656414,38.125984 0 0 1 39.669001,38.10984 l -39.656411,0.0161 z"
           transform="matrix(-0.8194084,0.57321015,-0.60514515,-0.79611516,0,0)" />
        <path
           style="fill:url(#linearGradient47);fill-opacity:1;stroke-width:0.152799"
           id="path44"
           sodipodi:type="arc"
           sodipodi:cx="179.72495"
           sodipodi:cy="-178.75462"
           sodipodi:rx="39.269089"
           sodipodi:ry="38.289734"
           sodipodi:start="0"
           sodipodi:end="6.282762"
           sodipodi:arc-type="slice"
           d="m 218.99403,-178.75462 a 39.269089,38.289734 0 0 1 -39.26493,38.28973 39.269089,38.289734 0 0 1 -39.27324,-38.28163 39.269089,38.289734 0 0 1 39.25662,-38.29784 39.269089,38.289734 0 0 1 39.28155,38.27353 l -39.26908,0.0162 z"
           transform="matrix(-0.33096284,0.94364379,-0.95156073,-0.30746084,0,0)" />
      </g>
    </g>
    <g
       id="g50"
       transform="matrix(0.10761336,0,0,0.10300447,182.99457,191.1201)">
      <path
         style="fill:url(#linearGradient50);fill-opacity:1;stroke-width:0.147971"
         id="path47"
         sodipodi:type="arc"
         sodipodi:cx="63.421406"
         sodipodi:cy="-246.61453"
         sodipodi:rx="38.424511"
         sodipodi:ry="36.697121"
         sodipodi:start="0"
         sodipodi:end="6.282762"
         sodipodi:arc-type="slice"
         d="m 101.84592,-246.61453 a 38.424511,36.697121 0 0 1 -38.420448,36.69712 38.424511,36.697121 0 0 1 -38.428576,-36.68936 38.424511,36.697121 0 0 1 38.412311,-36.70488 38.424511,36.697121 0 0 1 38.436703,36.68158 l -38.424504,0.0155 z"
         transform="matrix(-0.78775804,0.61598479,-0.66229429,-0.7492438,0,0)" />
      <g
         id="g49"
         transform="translate(0.42877718,3.0014404)">
        <path
           style="fill:url(#linearGradient51);fill-opacity:1;stroke-width:0.153223"
           id="path48"
           sodipodi:type="arc"
           sodipodi:cx="49.741825"
           sodipodi:cy="-248.85289"
           sodipodi:rx="39.656414"
           sodipodi:ry="38.125984"
           sodipodi:start="0"
           sodipodi:end="6.282762"
           sodipodi:arc-type="slice"
           d="m 89.398239,-248.85289 a 39.656414,38.125984 0 0 1 -39.652217,38.12598 39.656414,38.125984 0 0 1 -39.66061,-38.11791 39.656414,38.125984 0 0 1 39.643823,-38.13405 39.656414,38.125984 0 0 1 39.669001,38.10984 l -39.656411,0.0161 z"
           transform="matrix(-0.8194084,0.57321015,-0.60514515,-0.79611516,0,0)" />
        <path
           style="fill:url(#linearGradient52);fill-opacity:1;stroke-width:0.152799"
           id="path49"
           sodipodi:type="arc"
           sodipodi:cx="179.72495"
           sodipodi:cy="-178.75462"
           sodipodi:rx="39.269089"
           sodipodi:ry="38.289734"
           sodipodi:start="0"
           sodipodi:end="6.282762"
           sodipodi:arc-type="slice"
           d="m 218.99403,-178.75462 a 39.269089,38.289734 0 0 1 -39.26493,38.28973 39.269089,38.289734 0 0 1 -39.27324,-38.28163 39.269089,38.289734 0 0 1 39.25662,-38.29784 39.269089,38.289734 0 0 1 39.28155,38.27353 l -39.26908,0.0162 z"
           transform="matrix(-0.33096284,0.94364379,-0.95156073,-0.30746084,0,0)" />
      </g>
    </g>
    <g
       id="g55"
       transform="matrix(0.10761336,0,0,0.10300447,58.71386,-1.6052054)">
      <path
         style="fill:url(#linearGradient55);fill-opacity:1;stroke-width:0.147971"
         id="path52"
         sodipodi:type="arc"
         sodipodi:cx="63.421406"
         sodipodi:cy="-246.61453"
         sodipodi:rx="38.424511"
         sodipodi:ry="36.697121"
         sodipodi:start="0"
         sodipodi:end="6.282762"
         sodipodi:arc-type="slice"
         d="m 101.84592,-246.61453 a 38.424511,36.697121 0 0 1 -38.420448,36.69712 38.424511,36.697121 0 0 1 -38.428576,-36.68936 38.424511,36.697121 0 0 1 38.412311,-36.70488 38.424511,36.697121 0 0 1 38.436703,36.68158 l -38.424504,0.0155 z"
         transform="matrix(-0.78775804,0.61598479,-0.66229429,-0.7492438,0,0)" />
      <g
         id="g54"
         transform="translate(0.42877718,3.0014404)">
        <path
           style="fill:url(#linearGradient56);fill-opacity:1;stroke-width:0.153223"
           id="path53"
           sodipodi:type="arc"
           sodipodi:cx="49.741825"
           sodipodi:cy="-248.85289"
           sodipodi:rx="39.656414"
           sodipodi:ry="38.125984"
           sodipodi:start="0"
           sodipodi:end="6.282762"
           sodipodi:arc-type="slice"
           d="m 89.398239,-248.85289 a 39.656414,38.125984 0 0 1 -39.652217,38.12598 39.656414,38.125984 0 0 1 -39.66061,-38.11791 39.656414,38.125984 0 0 1 39.643823,-38.13405 39.656414,38.125984 0 0 1 39.669001,38.10984 l -39.656411,0.0161 z"
           transform="matrix(-0.8194084,0.57321015,-0.60514515,-0.79611516,0,0)" />
        <path
           style="fill:url(#linearGradient57);fill-opacity:1;stroke-width:0.152799"
           id="path54"
           sodipodi:type="arc"
           sodipodi:cx="179.72495"
           sodipodi:cy="-178.75462"
           sodipodi:rx="39.269089"
           sodipodi:ry="38.289734"
           sodipodi:start="0"
           sodipodi:end="6.282762"
           sodipodi:arc-type="slice"
           d="m 218.99403,-178.75462 a 39.269089,38.289734 0 0 1 -39.26493,38.28973 39.269089,38.289734 0 0 1 -39.27324,-38.28163 39.269089,38.289734 0 0 1 39.25662,-38.29784 39.269089,38.289734 0 0 1 39.28155,38.27353 l -39.26908,0.0162 z"
           transform="matrix(-0.33096284,0.94364379,-0.95156073,-0.30746084,0,0)" />
      </g>
    </g>
    <g
       id="g59"
       transform="matrix(0.06232067,-0.1003862,0.14099565,0.08753138,4.779279,114.30879)"
       style="fill:url(#linearGradient62)">
      <rect
         style="opacity:0.645338;fill:url(#linearGradient59);fill-opacity:0.388031;stroke-width:0.172"
         id="rect57"
         width="139.19397"
         height="28.811655"
         x="34.875988"
         y="72.038536"
         ry="8.9802561" />
      <rect
         style="opacity:0.645338;mix-blend-mode:normal;fill:url(#linearGradient60);fill-opacity:0.388031;stroke-width:0.172;filter:url(#filter13)"
         id="rect58"
         width="139.19397"
         height="28.811655"
         x="34.875988"
         y="72.038536"
         ry="8.9802561"
         transform="matrix(0.84339412,0,0,0.43526761,16.361081,59.202828)" />
      <rect
         style="fill:url(#linearGradient61);stroke-width:0.172"
         id="rect59"
         width="139.19397"
         height="28.811655"
         x="35.733936"
         y="71.280777"
         ry="8.9802561" />
    </g>
    <g
       id="g64"
       transform="matrix(0.06338291,0.01431279,-0.01948123,0.09186357,150.599,9.3239056)"
       style="fill:url(#linearGradient67)">
      <rect
         style="opacity:0.645338;fill:url(#linearGradient64);fill-opacity:0.388031;stroke-width:0.172"
         id="rect62"
         width="139.19397"
         height="28.811655"
         x="34.875988"
         y="72.038536"
         ry="8.9802561" />
      <rect
         style="opacity:0.645338;mix-blend-mode:normal;fill:url(#linearGradient65);fill-opacity:0.388031;stroke-width:0.172;filter:url(#filter13)"
         id="rect63"
         width="139.19397"
         height="28.811655"
         x="34.875988"
         y="72.038536"
         ry="8.9802561"
         transform="matrix(0.84339412,0,0,0.43526761,16.361081,59.202828)" />
      <rect
         style="fill:url(#linearGradient66);stroke-width:0.172"
         id="rect64"
         width="139.19397"
         height="28.811655"
         x="35.733936"
         y="71.280777"
         ry="8.9802561" />
    </g>
    <g
       id="g69"
       transform="matrix(0.06338291,0.01431279,-0.01948123,0.09186357,45.4339,247.84748)"
       style="fill:url(#linearGradient72)">
      <rect
         style="opacity:0.645338;fill:url(#linearGradient69);fill-opacity:0.388031;stroke-width:0.172"
         id="rect67"
         width="139.19397"
         height="28.811655"
         x="34.875988"
         y="72.038536"
         ry="8.9802561" />
      <rect
         style="opacity:0.645338;mix-blend-mode:normal;fill:url(#linearGradient70);fill-opacity:0.388031;stroke-width:0.172;filter:url(#filter13)"
         id="rect68"
         width="139.19397"
         height="28.811655"
         x="34.875988"
         y="72.038536"
         ry="8.9802561"
         transform="matrix(0.84339412,0,0,0.43526761,16.361081,59.202828)" />
      <rect
         style="fill:url(#linearGradient71);stroke-width:0.172"
         id="rect69"
         width="139.19397"
         height="28.811655"
         x="35.733936"
         y="71.280777"
         ry="8.9802561" />
    </g>
    <g
       id="g89"
       transform="matrix(0.04979768,0,0,0.04881993,185.8833,101.20326)">
      <path
         style="fill:url(#linearGradient89);fill-opacity:1;stroke-width:0.147971"
         id="path86"
         sodipodi:type="arc"
         sodipodi:cx="63.421406"
         sodipodi:cy="-246.61453"
         sodipodi:rx="38.424511"
         sodipodi:ry="36.697121"
         sodipodi:start="0"
         sodipodi:end="6.282762"
         sodipodi:arc-type="slice"
         d="m 101.84592,-246.61453 a 38.424511,36.697121 0 0 1 -38.420448,36.69712 38.424511,36.697121 0 0 1 -38.428576,-36.68936 38.424511,36.697121 0 0 1 38.412311,-36.70488 38.424511,36.697121 0 0 1 38.436703,36.68158 l -38.424504,0.0155 z"
         transform="matrix(-0.78775804,0.61598479,-0.66229429,-0.7492438,0,0)" />
      <g
         id="g88"
         transform="translate(0.42877718,3.0014404)">
        <path
           style="fill:url(#linearGradient90);fill-opacity:1;stroke-width:0.153223"
           id="path87"
           sodipodi:type="arc"
           sodipodi:cx="49.741825"
           sodipodi:cy="-248.85289"
           sodipodi:rx="39.656414"
           sodipodi:ry="38.125984"
           sodipodi:start="0"
           sodipodi:end="6.282762"
           sodipodi:arc-type="slice"
           d="m 89.398239,-248.85289 a 39.656414,38.125984 0 0 1 -39.652217,38.12598 39.656414,38.125984 0 0 1 -39.66061,-38.11791 39.656414,38.125984 0 0 1 39.643823,-38.13405 39.656414,38.125984 0 0 1 39.669001,38.10984 l -39.656411,0.0161 z"
           transform="matrix(-0.8194084,0.57321015,-0.60514515,-0.79611516,0,0)" />
        <path
           style="fill:url(#linearGradient91);fill-opacity:1;stroke-width:0.152799"
           id="path88"
           sodipodi:type="arc"
           sodipodi:cx="179.72495"
           sodipodi:cy="-178.75462"
           sodipodi:rx="39.269089"
           sodipodi:ry="38.289734"
           sodipodi:start="0"
           sodipodi:end="6.282762"
           sodipodi:arc-type="slice"
           d="m 218.99403,-178.75462 a 39.269089,38.289734 0 0 1 -39.26493,38.28973 39.269089,38.289734 0 0 1 -39.27324,-38.28163 39.269089,38.289734 0 0 1 39.25662,-38.29784 39.269089,38.289734 0 0 1 39.28155,38.27353 l -39.26908,0.0162 z"
           transform="matrix(-0.33096284,0.94364379,-0.95156073,-0.30746084,0,0)" />
      </g>
    </g>
  </g>
</svg>
